<?xml version="1.0" encoding="UTF-8" standalone="no"?>
<!DOCTYPE svg PUBLIC "-//W3C//DTD SVG 1.1//EN" "http://www.w3.org/Graphics/SVG/1.1/DTD/svg11.dtd">
<svg width="100%" height="100%" viewBox="0 0 447 447" version="1.1" xmlns="http://www.w3.org/2000/svg" xmlns:xlink="http://www.w3.org/1999/xlink" xml:space="preserve" xmlns:serif="http://www.serif.com/" style="fill-rule:evenodd;clip-rule:evenodd;stroke-linecap:round;stroke-linejoin:round;stroke-miterlimit:1.5;">
    <g transform="matrix(1,0,0,1,-339.074,-339.934)">
        <g transform="matrix(1,0,0,1,50,50)">
            <g transform="matrix(0.803624,0,0,0.803624,107.136,93.8154)">
                <g transform="matrix(0.841442,0.841442,-0.841442,0.841442,727.974,-499.691)">
                    <circle cx="473.842" cy="528.674" r="83.905" style="fill:white;"/>
                    <clipPath id="_clip1">
                        <circle cx="473.842" cy="528.674" r="83.905"/>
                    </clipPath>
                    <g clip-path="url(#_clip1)">
                        <g transform="matrix(0.759014,0,0,0.670788,107.594,165.47)">
                            <rect x="478.908" y="415.084" width="118.708" height="258.075" style="fill:rgb(213,208,208);"/>
                        </g>
                    </g>
                </g>
                <g transform="matrix(1.18998,1.11022e-16,-1.11022e-16,1.18998,-56.722,-110.547)">
                    <circle cx="473.842" cy="528.674" r="83.905" style="fill:none;stroke:white;stroke-opacity:0.55;stroke-width:10.46px;"/>
                </g>
                <g transform="matrix(0.841442,-0.841442,0.841442,0.841442,-511.115,647.121)">
                    <circle cx="473.842" cy="528.674" r="83.905" style="fill:none;stroke:white;stroke-opacity:0.4;stroke-width:10.46px;"/>
                </g>
            </g>
        </g>
    </g>
</svg>
